{"title":"Prosecutor.UN.Luis Moreno-Ocampo.TvOntarioDocumentary","uid":6493471,"size":739847655,"categoryP":"video","categoryS":"other","magnet":"?xt=urn:btih:dc0664b0363c4f65fdedac22f5c83fa68152a477&amp;dn=Prosecutor.UN.Luis+Moreno-Ocampo.TvOntarioDocumentary&amp;tr=udp%3A%2F%2Ftracker.openbittorrent.com%3A80&amp;tr=udp%3A%2F%2Fopen.demonii.com%3A1337&amp;tr=udp%3A%2F%2Ftracker.coppersurfer.tk%3A6969&amp;tr=udp%3A%2F%2Fexodus.desync.com%3A6969","seeders":1,"leechers":0,"uploader":"m2brier","files":3,"time":1308976973,"description":"The world's first permanent International Criminal Court is making headlines - issuing an arrest warrant for a sitting head of state for war crimes, Sudanese President Al-Bashir. Behind the charges: the court's controversial Prosecutor, Luis Moreno-Ocampo. The cameras follow the Prosecutor in New York as he defends the warrant at the UN Security Council; in The Hague, as he opens the Court's first trial of alleged Congolese war criminal Thomas Lubanga; and in the Congo as he meets citizens affected by the trial. Critics say Moreno-Ocampo's justice threatens peace. Champions of justice criticize his weaknesses. The Prosecutor must keep one step ahead of them all.\nGo to episode page\n\n\n\nGeneral\nComplete name                    : F:DVD RIPPER OUTPUT FOLDERThe ProsecutorProsecutor.UN.Luis Moreno-Ocampo.avi\nFormat                           : AVI\nFormat/Info                      : Audio Video Interleave\nFile size                        : 706 MiB\nDuration                         : 1h 52mn\nOverall bit rate                 : 877 Kbps\nWriting application              : Lavf52.13.0\n\nVideo\nID                               : 0\nFormat                           : MPEG-4 Visual\nCodec ID                         : MP42\nCodec ID/Info                    : Microsoft MPEG-4 v2 (pre-standard)\nCodec ID/Hint                    : Microsoft\nDuration                         : 1h 52mn\nBit rate                         : 768 Kbps\nWidth                            : 720 pixels\nHeight                           : 480 pixels\nDisplay aspect ratio             : 3:2\nFrame rate                       : 29.970 fps\nStandard                         : NTSC\nCompression mode                 : Lossy\nBits/(Pixel*Frame)               : 0.074\nStream size                      : 618 MiB (88%)\n\nAudio\nID                               : 1\nFormat                           : MPEG Audio\nFormat version                   : Version 1\nFormat profile                   : Layer 3\nMode                             : Joint stereo\nMode extension                   : MS Stereo\nCodec ID                         : 55\nCodec ID/Hint                    : MP3\nDuration                         : 1h 52mn\nBit rate mode                    : Constant\nBit rate                         : 96.0 Kbps\nChannel(s)                       : 2 channels\nSampling rate                    : 44.1 KHz\nCompression mode                 : Lossy\nStream size                      : 77.2 MiB (11%)\nAlignment                        : Aligned on interleaves\nInterleave, duration             : 26 ms (0.78 video frame)\nInterleave, preload duration     : 26 ms\n\n\n\n","torrent":{"xt":"urn:btih:dc0664b0363c4f65fdedac22f5c83fa68152a477","amp;dn":"Prosecutor.UN.Luis+Moreno-Ocampo.TvOntarioDocumentary","amp;tr":["udp%3A%2F%2Ftracker.openbittorrent.com%3A80","udp%3A%2F%2Fopen.demonii.com%3A1337","udp%3A%2F%2Ftracker.coppersurfer.tk%3A6969","udp%3A%2F%2Fexodus.desync.com%3A6969"],"infoHash":"dc0664b0363c4f65fdedac22f5c83fa68152a477","infoHashBuffer":{"type":"Buffer","data":[220,6,100,176,54,60,79,101,253,237,172,34,245,200,63,166,129,82,164,119]},"announce":[],"urlList":[]}}